<?xml version="1.0" encoding="UTF-8"?>
<svg width="110px" height="43px" viewBox="0 0 110 43" version="1.1" xmlns="http://www.w3.org/2000/svg" xmlns:xlink="http://www.w3.org/1999/xlink">
    <!-- Generator: Sketch 42 (36781) - http://www.bohemiancoding.com/sketch -->
    <title>logo</title>
    <desc>Created with Sketch.</desc>
    <defs></defs>
    <g id="Page-1" stroke="none" stroke-width="1" fill="none" fill-rule="evenodd">
        <g id="Timyoemailthatmatterswhenitmatters" transform="translate(-235.000000, -29.000000)">
            <g id="Header">
                <g id="Nav-menu">
                    <g id="logo" transform="translate(235.000000, 29.000000)">
                        <g id="Ресурс-1">
                            <g id="Слой_2">
                                <g id="Layer_1">
                                    <path d="M98.0313112,7.65401015 C101.210495,7.65005226 104.260281,8.9204576 106.506262,11.1842978 L106.506262,11.1842978 C111.144611,15.897969 111.125721,23.4965118 106.463993,28.1867787 C101.802266,32.8770455 94.2499597,32.8960514 89.5649706,28.2293063 L89.5649706,28.2293063 C86.1425426,24.7798643 85.1208612,19.5965554 86.9758914,15.0940984 C88.8309216,10.5916413 93.1977687,7.65569422 98.0420744,7.65401015 L98.0313112,7.65401015 Z M61.9358121,7.88142132 L66.7318982,7.88142132 L72.8066536,24.8462944 L70.4021526,31.5321827 L61.9358121,7.88142132 Z M29.6138943,31.6036548 L29.6138943,15.444467 C29.6726974,14.0608414 30.0745179,12.7139845 30.7827789,11.5264975 C31.5248612,10.2927224 32.5947476,9.29204916 33.87182,8.63729272 C35.2599919,7.91036119 36.8110764,7.55602288 38.3751468,7.60852792 C41.0013699,7.67494642 43.142531,8.78529047 44.7986301,10.9395601 C46.3255708,8.71887197 48.6776908,7.60852792 51.8549902,7.60852792 C53.280815,7.60879414 54.6820834,7.98196702 55.9213307,8.69143824 C57.1615996,9.37020215 58.2013351,10.3669868 58.9350294,11.580643 C59.6520003,12.7410382 60.0315712,14.0802957 60.0307241,15.4466328 L60.0307241,31.6058206 L55.7534247,31.6058206 L55.7534247,16.7656176 C55.7753935,15.538833 55.4466354,14.3315197 54.8062622,13.2873096 C54.1719504,12.2765933 53.0956295,11.7546306 51.5772994,11.7214213 C49.9857795,11.7214213 48.8255055,12.2195601 48.0964775,13.2158376 C47.3558635,14.2469015 46.9717248,15.4938658 47.0029354,16.7656176 L47.0029354,31.6036548 L42.6093933,31.6036548 L42.6093933,17.0601692 C42.6093933,15.3953751 42.2362688,14.0814439 41.4900196,13.1183756 C40.7437704,12.1553074 39.6731898,11.6903779 38.2782779,11.7235871 C36.5561644,11.7553525 35.3958904,12.2859786 34.797456,13.3154653 C34.1990215,14.3449521 33.8990868,15.6920925 33.8976517,17.3568866 L33.8976517,31.6058206 L29.6138943,31.6036548 Z M20.665362,2.71377327 C20.677607,2.03763695 20.9563753,1.39410275 21.4403131,0.924805415 C22.4665141,-0.0213720571 24.0413137,-0.0213720571 25.0675147,0.924805415 C25.5508002,1.43072175 25.8054394,2.11470034 25.7714286,2.81556684 C25.8038959,3.5142561 25.5493508,4.19563214 25.0675147,4.6998308 C24.6157289,5.16616054 23.9925502,5.4240118 23.3454012,5.41238579 C22.6398196,5.41478041 21.9605108,5.14325526 21.4489237,4.65434856 C20.9006423,4.16625531 20.6107451,3.44829347 20.665362,2.71377327 L20.665362,2.71377327 Z M21.0549902,31.6036548 L21.0549902,8.1001692 L25.3387476,8.1001692 L25.3387476,31.6036548 L21.0549902,31.6036548 Z M4.69060665,24.2571912 L4.69060665,12.2130626 L0,12.2130626 L0,8.09800338 L4.69060665,8.09800338 L4.69060665,0.216582064 L8.92270059,0.216582064 L8.92270059,8.1001692 L16.7712329,8.1001692 L16.7712329,12.2152284 L8.92270059,12.2152284 L8.92270059,25.093198 C8.93239951,25.734649 9.21636546,26.3407844 9.70195695,26.7565482 C10.2214612,27.2474676 10.9834964,27.4922053 11.9880626,27.4907614 L16.7712329,27.4907614 L16.7712329,31.6058206 L11.8911937,31.6058206 C9.42713633,31.6058206 7.61030659,30.9040948 6.4407045,29.500643 C5.27110241,28.0971912 4.68773646,26.3493739 4.69060665,24.2571912 Z M103.557143,14.1493063 L103.557143,14.1493063 C100.506499,11.0805842 95.5609103,11.081069 92.5108611,14.1503892 C89.4608118,17.2197093 89.4612937,22.1955757 92.5119374,25.2642978 L92.5119374,25.2642978 C95.5761271,28.269053 100.471777,28.2374206 103.497358,25.1933173 C106.522938,22.1492141 106.554378,17.2235921 103.567906,14.140643 L103.557143,14.1493063 Z" id="Shape" fill="#000000"></path>
                                    <polygon id="Shape" fill="#447FC0" points="85.6536204 7.88142132 80.7412916 7.88142132 77.9514677 15.6697124 82.8659491 15.6697124 85.6536204 7.88142132"></polygon>
                                    <polygon id="Shape" fill="#FFD700" points="77.318591 17.437022 74.8495108 24.3329949 79.7639922 24.3329949 82.235225 17.4305245 77.318591 17.437022"></polygon>
                                    <polygon id="Shape" fill="#7BC198" points="74.2166341 26.1024704 71.7410959 33.0157699 76.6555773 33.0157699 79.1332681 26.0959729 74.2166341 26.1024704"></polygon>
                                    <polygon id="Shape" fill="#E8425E" points="71.1082192 34.7830795 68.3183953 42.5757022 73.2328767 42.5757022 76.0248532 34.7787479 71.1082192 34.7830795"></polygon>
                                </g>
                            </g>
                        </g>
                    </g>
                </g>
            </g>
        </g>
    </g>
</svg>