<?xml version="1.0" encoding="UTF-8"?>
<svg width="53px" height="52px" viewBox="0 0 53 52" version="1.1" xmlns="http://www.w3.org/2000/svg" xmlns:xlink="http://www.w3.org/1999/xlink">
    <!-- Generator: Sketch 43.1 (39012) - http://www.bohemiancoding.com/sketch -->
    <title>Microsoft_Outlook_2013_logo Copy</title>
    <desc>Created with Sketch.</desc>
    <defs></defs>
    <g id="Page-1" stroke="none" stroke-width="1" fill="none" fill-rule="evenodd">
        <g id="Timyoemailthatmatterswhenitmatters" transform="translate(-1285.000000, -7063.000000)" fill-rule="nonzero">
            <g id="Microsoft_Outlook_2013_logo-Copy" transform="translate(1285.000000, 7063.000000)">
                <g id="svg2">
                    <path d="M27.3992135,0 L30.9603371,0 L30.9603371,12.0930233 C37.1297753,12.1051163 43.2932584,12.0748837 49.4567416,12.0930233 C50.671573,12.0325581 52.3330337,12.3893023 52.3092135,13.9432558 C52.5355056,21.592093 52.3151685,29.2590698 52.4164045,36.9139535 C52.4402247,38.2683721 52.3985393,40.4027907 50.5822472,40.4209302 C44.0495506,40.6506977 37.4989888,40.4390698 30.9603371,40.5116279 L30.9603371,52 L27.2682022,52 C18.1926966,50.3251163 9.09337079,48.7832558 0.00595505618,47.1627907 C0,33.0562791 0,18.9497674 0,4.84930233 C9.13505618,3.2227907 18.2701124,1.65069767 27.3992135,0 Z" id="path18" fill="#333333"></path>
                    <path d="M30.9603371,13.9069767 C37.5585393,13.9130233 44.1507865,13.8888372 50.7489888,13.9190698 C50.6358427,14.7111628 50.3976404,15.4911628 49.7425843,15.9869767 C45.8003371,19.7176744 41.8819101,23.4665116 37.951573,27.2093023 C35.5874157,25.0386047 33.288764,22.7953488 30.9603371,20.5883721 L30.9603371,13.9069767 L30.9603371,13.9069767 Z" id="path64" fill="#FFFFFF"></path>
                    <path d="M12.7676404,16.12 C16.1262921,14.832093 20.0506742,16.64 21.4739326,19.9353488 C23.4152809,24.4702326 23.1413483,30.6739535 19.2824719,34.1023256 C15.7273034,37.192093 9.76629213,35.4325581 8.14651685,31.0427907 C6.01460674,25.9818605 7.05078652,18.1939535 12.7676404,16.12 L12.7676404,16.12 Z" id="path76" fill="#FFFFFF"></path>
                    <path d="M39.8214607,27.7474419 C43.4004494,24.2948837 47.0092135,20.8665116 50.6060674,17.432093 C50.6239326,24.5186047 50.6060674,31.6111628 50.6120225,38.6976744 L30.9603371,38.6976744 C30.9603371,33.4251163 30.954382,28.1525581 30.9662921,22.8860465 C33.1875281,24.8813953 35.1765169,27.1548837 37.5347191,28.9748837 C38.5053933,29.1562791 39.1604494,28.3037209 39.8214607,27.7474419 Z" id="path92" fill="#FFFFFF"></path>
                    <path d="M13.3452809,19.7539535 C14.9293258,18.9860465 16.9123596,19.7660465 17.6567416,21.3562791 C18.8477528,23.7506977 18.8417978,26.6711628 18.0616854,29.1986047 C17.5078652,30.9944186 15.5724719,32.475814 13.6966292,31.7683721 C11.3562921,31.0186047 10.6476404,28.2009302 10.6238202,25.9939535 C10.5940449,23.7083721 11.1121348,20.8604651 13.3452809,19.7539535 L13.3452809,19.7539535 Z" id="path96" fill="#333333"></path>
                </g>
            </g>
        </g>
    </g>
</svg>