<svg id="Badges" xmlns="http://www.w3.org/2000/svg" viewBox="0 0 30 30">
  <title>Cc-Bcc-icon</title>
  <g>
    <path d="M20.94,29.22l-1.19-6.87-2.41-1.43,1.49,8.66a.83.83,0,0,1-.62,1L11,31.85a.77.77,0,0,1-.55-.12.87.87,0,0,1-.34-.56L7.15,14a.92.92,0,0,1,.1-.59L8,12.11,7.1,9.38l-1.71,3a3.06,3.06,0,0,0-.34,2L8,31.54a3,3,0,0,0,1.23,1.94,2.84,2.84,0,0,0,1.64.52,2.74,2.74,0,0,0,.5,0l7.22-1.3A3,3,0,0,0,20.94,29.22Z" transform="translate(-5 -4)"/>
    <g>
      <path d="M14.41,19.19a.77.77,0,0,1-.49.27c-.5.09-.89-.21-1-1l0-.13L10.67,17l-.1-.06-1.48.27.36,2.08c.23,1.33,1,2.22,2.13,2a1.38,1.38,0,0,0,1.2-1.4h0a1.32,1.32,0,0,0,1.43.6,1.25,1.25,0,0,0,1-.77h0Zm-2.95,1c-.65.12-1.06-.32-1.21-1.2l-.16-.91L12,17.79l.15.9C12.28,19.59,12.08,20.12,11.46,20.23Z" transform="translate(-5 -4)"/>
      <path d="M12.19,21.92a2.22,2.22,0,0,1,2.72,1.85,2,2,0,0,1-.27,1.42l-.77-.39a1.14,1.14,0,0,0,.19-.81,1.31,1.31,0,0,0-1.69-1c-.88.16-1.38.76-1.26,1.47a1.54,1.54,0,0,0,.54.86l-.61.56a2.31,2.31,0,0,1-.8-1.38A2.18,2.18,0,0,1,12.19,21.92Z" transform="translate(-5 -4)"/>
      <path d="M12.89,26a2.22,2.22,0,0,1,2.72,1.85,2,2,0,0,1-.27,1.42l-.77-.39a1.14,1.14,0,0,0,.19-.81,1.31,1.31,0,0,0-1.69-1c-.88.16-1.38.76-1.26,1.47a1.54,1.54,0,0,0,.54.86l-.61.56a2.31,2.31,0,0,1-.8-1.38A2.18,2.18,0,0,1,12.89,26Z" transform="translate(-5 -4)"/>
    </g>
  </g>
  <g>
    <g>
      <path d="M28.56,24.94a2.67,2.67,0,0,1-1.36-.37l-15-8.86A2.75,2.75,0,0,1,11,14.21L8.81,7.8A1.89,1.89,0,0,1,9,6.25a1.86,1.86,0,0,1,1.24-.89l6.52-1.3a2.69,2.69,0,0,1,1.89.32l15,8.86a2.82,2.82,0,0,1,1,3.8L31,23.52a2.76,2.76,0,0,1-1.7,1.33A2.73,2.73,0,0,1,28.56,24.94ZM17.25,5.87l-.16,0-6.51,1.3,2.16,6.43a.89.89,0,0,0,.39.48l15,8.86a.82.82,0,0,0,.63.09.92.92,0,0,0,.56-.44L33,16.12a.94.94,0,0,0-.31-1.28L17.66,6A.82.82,0,0,0,17.25,5.87Z" transform="translate(-5 -4)"/>
      <path d="M16.24,8.38a1.89,1.89,0,0,1,.67,2.56,1.81,1.81,0,0,1-2.5.68,1.89,1.89,0,0,1-.67-2.56A1.81,1.81,0,0,1,16.24,8.38Z" transform="translate(-5 -4)"/>
    </g>
    <g>
      <path d="M19,12.28c1-1.73,2.62-2.13,3.93-1.36a2.43,2.43,0,0,1,1.12,1.56l-.84.32a1.59,1.59,0,0,0-.72-1c-.85-.5-1.86-.13-2.54,1.06s-.54,2.26.33,2.78a1.67,1.67,0,0,0,1.42.11l.16.88a2.37,2.37,0,0,1-2.07-.19C18.53,15.62,18,14,19,12.28Z" transform="translate(-5 -4)"/>
      <path d="M23.18,15.59a2.2,2.2,0,0,1,3.13-.94,2,2,0,0,1,.89,1.12l-.79.35a1.12,1.12,0,0,0-.49-.68c-.63-.37-1.36-.1-1.81.7a1.35,1.35,0,0,0,.29,1.93,1.48,1.48,0,0,0,1,.13l0,.84a2.22,2.22,0,0,1-2.25-3.45Z" transform="translate(-5 -4)"/>
    </g>
  </g>
</svg>
