<svg id="Convers" xmlns="http://www.w3.org/2000/svg" viewBox="0 0 30 25">
  <title>conv-icon</title>
  <g>
    <path d="M20.13,7.5H8a3,3,0,0,0-3,3v8a3,3,0,0,0,3,3H9l3,3v-3h1.76v-2H8a1,1,0,0,1-1-1v-8a1,1,0,0,1,1-1h12.1a1,1,0,0,1,1,1v2h2v-2A3,3,0,0,0,20.13,7.5Z" transform="translate(-5 -7.5)"/>
    <path d="M32,15.5H25.92v2H32a1,1,0,0,1,1,1v8a1,1,0,0,1-1,1H19.87a1,1,0,0,1-1-1v-2h-2v2a3,3,0,0,0,3,3h8.32v3l3-3H32a3,3,0,0,0,3-3v-8A3,3,0,0,0,32,15.5Z" transform="translate(-5 -7.5)"/>
    <polygon points="19 10 16 10 16 7 14 7 14 10 11 10 11 12 14 12 14 15 16 15 16 12 19 12 19 10"/>
  </g>
</svg>
