<svg id="To-do" xmlns="http://www.w3.org/2000/svg" viewBox="0 0 22 30">
  <title>to-do-icon</title>
  <g>
    <path d="M28,11.59h-.08v2H28a1,1,0,0,1,1,1V32a1,1,0,0,1-1,1H12a1,1,0,0,1-1-1V14.59a1,1,0,0,1,1-1h.08v-2H12a3,3,0,0,0-3,3V32a3,3,0,0,0,3,3H28a3,3,0,0,0,3-3V14.59A3,3,0,0,0,28,11.59Z" transform="translate(-9 -5)"/>
    <path d="M27.15,13.59H12.85v-1a4.23,4.23,0,0,1,3.62-4.27l.25-.27a3.29,3.29,0,0,1,6.57,0l.25.27a4.23,4.23,0,0,1,3.62,4.27Zm-12.1-2h9.89a2.07,2.07,0,0,0-1.87-1.29h-.43L21.31,8.87V8.47a1.32,1.32,0,1,0-2.62,0v.39l-1.34,1.43h-.43A2.07,2.07,0,0,0,15.05,11.59Zm2.64-3.12h0Z" transform="translate(-9 -5)"/>
    <circle cx="11" cy="4.29" r="1"/>
    <rect x="4.08" y="10.88" width="2.31" height="2.47"/>
    <rect x="7.92" y="10.88" width="9.23" height="1.65"/>
    <rect x="4.08" y="15" width="2.31" height="2.47"/>
    <rect x="7.92" y="15" width="5.38" height="1.65"/>
    <rect x="4.08" y="19.12" width="2.31" height="2.47"/>
    <rect x="7.92" y="19.12" width="10" height="1.65"/>
    <rect x="4.08" y="23.24" width="2.31" height="2.47"/>
    <rect x="7.92" y="23.24" width="7.69" height="1.65"/>
  </g>
</svg>
