<svg id="Bell" xmlns="http://www.w3.org/2000/svg" viewBox="0 0 24 30">
  <title>bell-icon</title>
  <path d="M31.26,29.69l-.09,0a5.79,5.79,0,0,1-3-5.16V18.36a9,9,0,0,0-5.4-8.47V8.39a2.8,2.8,0,1,0-5.6,0V9.87a8.09,8.09,0,0,0-2.71,1.74,9,9,0,0,0-2.69,6.48v6.4a5.78,5.78,0,0,1-3,5.16l-.09,0a1,1,0,0,0-.51,1.16,1,1,0,0,0,1,.79h7.1A3.81,3.81,0,0,0,20,35.5a3.81,3.81,0,0,0,3.69-3.85h7.1a1,1,0,0,0,1-.79A1,1,0,0,0,31.26,29.69Zm-12-21.3a.8.8,0,1,1,1.6,0v1h-1.6Zm.8,25a1.77,1.77,0,0,1-1.69-1.78h3.38A1.77,1.77,0,0,1,20,33.43Zm-8-3.85a8.11,8.11,0,0,0,1.76-5.09v-6.4a6.92,6.92,0,0,1,2.06-5,5.91,5.91,0,0,1,4.55-1.69c3.24.23,5.78,3.27,5.78,6.92v6.13A8.11,8.11,0,0,0,28,29.58Z" transform="translate(-8.14 -5.5)"/>
  <path d="M9.17,19a1,1,0,0,1-1-.94,9.72,9.72,0,0,1,2.49-7.56,1,1,0,0,1,1.41,0A1.06,1.06,0,0,1,12,12a7.62,7.62,0,0,0-1.87,5.85A1,1,0,0,1,9.26,19Z" transform="translate(-8.14 -5.5)"/>
  <path d="M31.1,19H31a1,1,0,0,1-.9-1.13A7.63,7.63,0,0,0,28.24,12a1.06,1.06,0,0,1,0-1.46,1,1,0,0,1,1.41,0,9.72,9.72,0,0,1,2.49,7.56A1,1,0,0,1,31.1,19Z" transform="translate(-8.14 -5.5)"/>
</svg>
