<svg id="Watch" xmlns="http://www.w3.org/2000/svg" viewBox="0 0 30 30">
  <title>watches-icon</title>
  <g>
    <path d="M26.94,20h-7V12a1,1,0,0,0-2,0v9a1,1,0,0,0,1,1h8a1,1,0,0,0,0-2Z" transform="translate(-5 -5)"/>
    <path d="M33.42,13.6a1.06,1.06,0,0,0,.32-.22,4.27,4.27,0,0,0-6-6.12,14.74,14.74,0,0,0-15.64,0,4.35,4.35,0,0,0-5.9.11,4.3,4.3,0,0,0,0,6.06,1,1,0,0,0,.23.15A14.94,14.94,0,0,0,9.16,30.36l-2.88,2.8a1.07,1.07,0,0,0,0,1.52,1.06,1.06,0,0,0,1.51,0l3-2.9a14.79,14.79,0,0,0,18.37,0L32,34.69a1.06,1.06,0,0,0,1.51,0,1.07,1.07,0,0,0,0-1.52l-2.79-2.8A14.94,14.94,0,0,0,33.42,13.6ZM32.24,8.84a2.13,2.13,0,0,1,.13,2.87,15.09,15.09,0,0,0-2.8-3.15A2.19,2.19,0,0,1,32.24,8.84ZM7.13,10.36a2.13,2.13,0,0,1,.63-1.52,2.18,2.18,0,0,1,2.58-.32,15.1,15.1,0,0,0-2.79,3.1A2.13,2.13,0,0,1,7.13,10.36Zm12.8,22.5A12.86,12.86,0,1,1,32.74,20,12.84,12.84,0,0,1,19.94,32.86Z" transform="translate(-5 -5)"/>
  </g>
</svg>
